<?xml version="1.0" encoding="utf-8"?>
<!-- Generator: Adobe Illustrator 19.1.1, SVG Export Plug-In . SVG Version: 6.00 Build 0)  -->
<svg version="1.1" id="Calque_1" xmlns="http://www.w3.org/2000/svg" xmlns:xlink="http://www.w3.org/1999/xlink" x="0px" y="0px"
	 viewBox="0 0 595.3 841.9" style="enable-background:new 0 0 595.3 841.9;" xml:space="preserve">
<style type="text/css">
	.st0{clip-path:url(#SVGID_2_);fill:none;stroke:#DADADA;stroke-width:2.798;stroke-miterlimit:10;}
	.st1{fill:#088C9B;}
	.st2{font-family:'Neuropol';}
	.st3{font-size:37.6742px;}
</style>
<path d="M75,96.5"/>
<g>
	<defs>
		<rect id="SVGID_1_" x="247" y="301.7" width="244.9" height="92.2"/>
	</defs>
	<clipPath id="SVGID_2_">
		<use xlink:href="#SVGID_1_"  style="overflow:visible;"/>
	</clipPath>
	<path class="st0" d="M351.3,364.8c0,2.2-1.8,4-4,4c-2.2,0-4-1.8-4-4c0-2.2,1.8-4,4-4C349.5,360.9,351.3,362.6,351.3,364.8z
		 M309.5,307.1c0,2.2-1.8,4-4,4c-2.2,0-4-1.8-4-4c0-2.2,1.8-4,4-4C307.8,303.1,309.5,304.9,309.5,307.1z M343.9,365.4
		c0,0-28.9,4.9-29.8-28c0,0,11.4,10,25,0 M308.5,307.3c0,0,28.9-4.9,29.8,28c0,0-11.4-10-25,0"/>
</g>
<text transform="matrix(1 0 0 1 256 335.0189)"><tspan x="0" y="0" class="st1 st2 st3">Sh   </tspan><tspan x="86.1" y="0" class="st1 st2 st3">r</tspan><tspan x="98.5" y="0" class="st1 st2 st3">e</tspan></text>
<text transform="matrix(1 0 0 1 283.5776 360.1097)" class="st1 st2 st3">K</text>
<text transform="matrix(1 0 0 1 310.1001 360.1097)" class="st1 st2 st3"> </text>
<text transform="matrix(1 0 0 1 319.5942 360.1097)" class="st1 st2 st3">   n</text>
</svg>
